<?xml version="1.0" encoding="UTF-8" standalone="no"?>
<!-- Generator: Adobe Illustrator 16.0.4, SVG Export Plug-In . SVG Version: 6.00 Build 0)  -->

<svg
   xmlns:dc="http://purl.org/dc/elements/1.1/"
   xmlns:cc="http://creativecommons.org/ns#"
   xmlns:rdf="http://www.w3.org/1999/02/22-rdf-syntax-ns#"
   xmlns:svg="http://www.w3.org/2000/svg"
   xmlns="http://www.w3.org/2000/svg"
   xmlns:sodipodi="http://sodipodi.sourceforge.net/DTD/sodipodi-0.dtd"
   xmlns:inkscape="http://www.inkscape.org/namespaces/inkscape"
   version="1.1"
   id="Capa_1"
   x="0px"
   y="0px"
   width="17"
   height="17"
   viewBox="0 0 17 17"
   enable-background="new 0 0 17.018 28.004"
   xml:space="preserve"
   inkscape:version="0.48.4 r9939"
   sodipodi:docname="home-teach.svg"><metadata
   id="metadata3001"><rdf:RDF><cc:Work
       rdf:about=""><dc:format>image/svg+xml</dc:format><dc:type
         rdf:resource="http://purl.org/dc/dcmitype/StillImage" /></cc:Work></rdf:RDF></metadata><defs
   id="defs2999" /><sodipodi:namedview
   pagecolor="#ffffff"
   bordercolor="#666666"
   borderopacity="1"
   objecttolerance="10"
   gridtolerance="10"
   guidetolerance="10"
   inkscape:pageopacity="0"
   inkscape:pageshadow="2"
   inkscape:window-width="1240"
   inkscape:window-height="824"
   id="namedview2997"
   showgrid="false"
   inkscape:zoom="11.918098"
   inkscape:cx="-5.1676791"
   inkscape:cy="14.002"
   inkscape:window-x="1877"
   inkscape:window-y="141"
   inkscape:window-maximized="0"
   inkscape:current-layer="Capa_1" />
<path
   d="m 8.5561451,3.6113145 c 0,-1.4422773 1.0841758,-2.6113148 2.4217579,-2.6113148 1.338573,0 2.422749,1.1690375 2.422749,2.6113148 0,1.4422773 -1.084176,2.6113151 -2.422749,2.6113151 -1.3375821,0 -2.4217579,-1.1690378 -2.4217579,-2.6113151 z M 16.909567,9.587229 c 0.388054,4.818524 -0.557953,5.849984 -1.222097,5.919044 -0.592966,0.06166 -0.893587,-0.260842 -0.893587,-5.420784 l -0.661834,0 c -0.605001,1.671212 -0.01926,4.293162 -0.863846,5.495871 C 12.892476,16.1164 12.031781,15.899462 11.003116,16 9.7911336,15.917935 8.9241228,16.073045 8.4958196,15.555945 7.5223253,14.380622 8.1161202,11.829951 7.1013023,10.055481 l 0,2.021974 c 0,0.0021 0,0.0064 0,0.0096 0,0.628986 -0.4750101,1.142249 -1.0563509,1.142249 -0.1729117,0 -0.3269422,-0.05358 -0.4730227,-0.133942 l -0.00497,0.0064 -1.827496,-1.322266 -0.9639327,-0.694351 -0.6876716,-0.497189 9.938e-4,0 c -9.938e-4,-0.0064 -0.00298,-0.0064 -0.00497,-0.0086 C 1.6595543,10.121815 1.6496169,9.383531 2.0689772,8.93456 2.1703392,8.825265 2.2866074,8.747043 2.4118193,8.693466 L 0,1.8668587 0.42035416,1.6943426 2.868942,8.624989 c 0.2633425,0.01286 0.5256911,0.107153 0.7254339,0.324674 0,0 0.00596,0.0064 0.00795,0.0064 l 0.1381306,0.102868 1.2461563,0.9183 0,-0.388965 C 5.2171617,6.6212038 8.4070835,6.666208 8.4070835,6.666208 l 1.3793184,0 1.2450691,-0.00943 1.083275,0.00943 1.324663,0 C 17.03776,6.738 16.909567,9.587195 16.909567,9.587201 z"
   id="path2995"
   inkscape:connector-curvature="0"
   style="fill:#dcdcdc;fill-opacity:1"
   sodipodi:nodetypes="ssssscsccscscsssccccccsccccccccccccccccc" />
</svg>