<?xml version="1.0" encoding="UTF-8" standalone="no"?>
<!-- Generator: Adobe Illustrator 16.0.4, SVG Export Plug-In . SVG Version: 6.00 Build 0)  -->

<svg
   xmlns:dc="http://purl.org/dc/elements/1.1/"
   xmlns:cc="http://creativecommons.org/ns#"
   xmlns:rdf="http://www.w3.org/1999/02/22-rdf-syntax-ns#"
   xmlns:svg="http://www.w3.org/2000/svg"
   xmlns="http://www.w3.org/2000/svg"
   xmlns:sodipodi="http://sodipodi.sourceforge.net/DTD/sodipodi-0.dtd"
   xmlns:inkscape="http://www.inkscape.org/namespaces/inkscape"
   version="1.1"
   id="Capa_1"
   x="0px"
   y="0px"
   width="17"
   height="17"
   viewBox="0 0 17 17"
   xml:space="preserve"
   inkscape:version="0.48.4 r9939"
   sodipodi:docname="home-news.svg"><metadata
   id="metadata3115"><rdf:RDF><cc:Work
       rdf:about=""><dc:format>image/svg+xml</dc:format><dc:type
         rdf:resource="http://purl.org/dc/dcmitype/StillImage" /></cc:Work></rdf:RDF></metadata><defs
   id="defs3113" /><sodipodi:namedview
   pagecolor="#ffffff"
   bordercolor="#666666"
   borderopacity="1"
   objecttolerance="10"
   gridtolerance="10"
   guidetolerance="10"
   inkscape:pageopacity="0"
   inkscape:pageshadow="2"
   inkscape:window-width="894"
   inkscape:window-height="669"
   id="namedview3111"
   showgrid="false"
   inkscape:zoom="10.535234"
   inkscape:cx="-1.8983917"
   inkscape:cy="10.7045"
   inkscape:window-x="2066"
   inkscape:window-y="329"
   inkscape:window-maximized="0"
   inkscape:current-layer="Capa_1" />
<g
   id="g3075"
   transform="matrix(0.62622022,0,0,0.70065633,0,0.9999997)"
   style="fill:#dcdcdc;fill-opacity:1">
	<path
   style="fill:#dcdcdc;fill-rule:evenodd;fill-opacity:1"
   d="m 9.971,4.226 c 5.505,0 9.97,3.402 9.97,7.598 0,4.196 -4.465,7.597 -9.97,7.597 -0.972,0 -1.91,-0.106 -2.798,-0.303 C 6,21.244 3.872,21.716 1.969,21.238 3.116,20.254 4.106,19.322 4.849,18.342 1.944,17.015 0,14.592 0,11.824 0,7.628 4.465,4.226 9.971,4.226 z"
   id="path3077"
   inkscape:connector-curvature="0" />
	<path
   style="fill:#dcdcdc;fill-rule:evenodd;fill-opacity:1"
   d="m 17.178,0 c -3.416,0 -6.432,1.31 -8.229,3.307 4.46,-1.197 15.345,3.597 11.237,11.604 1.173,2.126 3.089,2.578 4.993,2.1 -1.147,-0.984 -2.137,-1.916 -2.88,-2.896 2.903,-1.328 4.848,-3.75 4.848,-6.519 C 27.147,3.402 22.683,0 17.178,0 z"
   id="path3079"
   inkscape:connector-curvature="0" />
</g>
<g
   id="g3081"
   transform="translate(0,-4.4090004)">
</g>
<g
   id="g3083"
   transform="translate(0,-4.4090004)">
</g>
<g
   id="g3085"
   transform="translate(0,-4.4090004)">
</g>
<g
   id="g3087"
   transform="translate(0,-4.4090004)">
</g>
<g
   id="g3089"
   transform="translate(0,-4.4090004)">
</g>
<g
   id="g3091"
   transform="translate(0,-4.4090004)">
</g>
<g
   id="g3093"
   transform="translate(0,-4.4090004)">
</g>
<g
   id="g3095"
   transform="translate(0,-4.4090004)">
</g>
<g
   id="g3097"
   transform="translate(0,-4.4090004)">
</g>
<g
   id="g3099"
   transform="translate(0,-4.4090004)">
</g>
<g
   id="g3101"
   transform="translate(0,-4.4090004)">
</g>
<g
   id="g3103"
   transform="translate(0,-4.4090004)">
</g>
<g
   id="g3105"
   transform="translate(0,-4.4090004)">
</g>
<g
   id="g3107"
   transform="translate(0,-4.4090004)">
</g>
<g
   id="g3109"
   transform="translate(0,-4.4090004)">
</g>
</svg>