<?xml version="1.0" encoding="UTF-8" standalone="no"?>
<!-- Generator: Adobe Illustrator 17.0.0, SVG Export Plug-In . SVG Version: 6.00 Build 0)  -->

<svg
   xmlns:dc="http://purl.org/dc/elements/1.1/"
   xmlns:cc="http://creativecommons.org/ns#"
   xmlns:rdf="http://www.w3.org/1999/02/22-rdf-syntax-ns#"
   xmlns:svg="http://www.w3.org/2000/svg"
   xmlns="http://www.w3.org/2000/svg"
   xmlns:sodipodi="http://sodipodi.sourceforge.net/DTD/sodipodi-0.dtd"
   xmlns:inkscape="http://www.inkscape.org/namespaces/inkscape"
   version="1.1"
   id="Capa_1"
   x="0px"
   y="0px"
   width="17"
   height="17"
   viewBox="0 0 17 17"
   enable-background="new 0 0 27.529 19.452"
   xml:space="preserve"
   inkscape:version="0.48.4 r9939"
   sodipodi:docname="home-study.svg"><metadata
   id="metadata3019"><rdf:RDF><cc:Work
       rdf:about=""><dc:format>image/svg+xml</dc:format><dc:type
         rdf:resource="http://purl.org/dc/dcmitype/StillImage" /></cc:Work></rdf:RDF></metadata><defs
   id="defs3017" /><sodipodi:namedview
   pagecolor="#ffffff"
   bordercolor="#666666"
   borderopacity="1"
   objecttolerance="10"
   gridtolerance="10"
   guidetolerance="10"
   inkscape:pageopacity="0"
   inkscape:pageshadow="2"
   inkscape:window-width="765"
   inkscape:window-height="826"
   id="namedview3015"
   showgrid="false"
   inkscape:zoom="10.389045"
   inkscape:cx="-1.9251038"
   inkscape:cy="9.7259998"
   inkscape:window-x="2215"
   inkscape:window-y="191"
   inkscape:window-maximized="0"
   inkscape:current-layer="Capa_1" />
<path
   d="M 14.486033,10.430135 14.046351,7.2607953 8.6658072,11.266809 3.389008,7.2600233 2.9505613,10.680751 c 0.00185,-0.0046 0.00618,-0.0093 0.010498,-0.01465 -0.062988,0.131092 -0.09757,0.26604 -0.09757,0.404072 0,1.208359 4.0614989,4.929827 5.4145084,4.929827 1.3542447,0 6.2963423,-3.720697 6.2963423,-4.929827 0,-0.130321 -0.03458,-0.256786 -0.08831,-0.640037 z M 8.7077993,10.558913 0.43906427,4.3019731 8.7306479,0.9999989 17,4.2549342 8.7077993,10.558913 z M 0.49587709,4.8556437 0,11.71098 0.49587709,13.76681 0.95531987,11.71098 0.49587709,4.8556437 z"
   id="path3013"
   inkscape:connector-curvature="0"
   style="fill:#dcdcdc;fill-opacity:1" />
</svg>