<?xml version="1.0" encoding="UTF-8" standalone="no"?>
<!-- Generator: Adobe Illustrator 15.1.0, SVG Export Plug-In . SVG Version: 6.00 Build 0)  -->

<svg
   xmlns:dc="http://purl.org/dc/elements/1.1/"
   xmlns:cc="http://creativecommons.org/ns#"
   xmlns:rdf="http://www.w3.org/1999/02/22-rdf-syntax-ns#"
   xmlns:svg="http://www.w3.org/2000/svg"
   xmlns="http://www.w3.org/2000/svg"
   xmlns:sodipodi="http://sodipodi.sourceforge.net/DTD/sodipodi-0.dtd"
   xmlns:inkscape="http://www.inkscape.org/namespaces/inkscape"
   version="1.1"
   x="0px"
   y="0px"
   width="17"
   height="17"
   viewBox="0 0 17 17"
   xml:space="preserve"
   id="svg3148"
   inkscape:version="0.48.4 r9939"
   sodipodi:docname="home-me.svg"><metadata
   id="metadata3158"><rdf:RDF><cc:Work
       rdf:about=""><dc:format>image/svg+xml</dc:format><dc:type
         rdf:resource="http://purl.org/dc/dcmitype/StillImage" /></cc:Work></rdf:RDF></metadata><defs
   id="defs3156" /><sodipodi:namedview
   pagecolor="#ffffff"
   bordercolor="#666666"
   borderopacity="1"
   objecttolerance="10"
   gridtolerance="10"
   guidetolerance="10"
   inkscape:pageopacity="0"
   inkscape:pageshadow="2"
   inkscape:window-width="833"
   inkscape:window-height="578"
   id="namedview3154"
   showgrid="false"
   inkscape:zoom="7.375"
   inkscape:cx="-6.1016949"
   inkscape:cy="16"
   inkscape:window-x="2127"
   inkscape:window-y="324"
   inkscape:window-maximized="0"
   inkscape:current-layer="svg3148" />
<g
   id="Layer_1"
   transform="translate(0,-15)">
</g>
<g
   id="cog"
   transform="matrix(0.53125,0,0,0.46875,0,1)"
   style="fill:#dcdcdc;fill-opacity:1">
	<path
   style="fill:#dcdcdc;fill-opacity:1"
   d="m 32,17.969 v -4 L 27.219,11.977 C 27.086,11.602 26.946,11.239 26.774,10.883 L 28.704,6.078 25.875,3.25 21.113,5.211 C 20.75,5.035 20.379,4.887 19.996,4.75 L 17.969,0 h -4 l -1.977,4.734 c -0.398,0.141 -0.781,0.289 -1.16,0.469 L 6.078,3.293 3.25,6.121 5.188,10.832 C 5,11.219 4.848,11.613 4.703,12.02 L 0,14.031 v 4 l 4.707,1.961 c 0.145,0.406 0.301,0.801 0.488,1.188 l -1.902,4.742 2.828,2.828 4.723,-1.945 c 0.379,0.18 0.766,0.324 1.164,0.461 L 14.031,32 h 4 l 1.98,-4.758 c 0.379,-0.141 0.754,-0.289 1.113,-0.461 l 4.797,1.922 2.828,-2.828 -1.969,-4.773 c 0.168,-0.359 0.305,-0.723 0.438,-1.094 L 32,17.969 z M 15.969,22 c -3.312,0 -6,-2.688 -6,-6 0,-3.312 2.688,-6 6,-6 3.312,0 6,2.688 6,6 0,3.312 -2.688,6 -6,6 z"
   id="path3152"
   inkscape:connector-curvature="0" />
</g>
</svg>