<?xml version="1.0" encoding="UTF-8" standalone="no"?>
<!-- Generator: Adobe Illustrator 17.0.0, SVG Export Plug-In . SVG Version: 6.00 Build 0)  -->

<svg
   xmlns:dc="http://purl.org/dc/elements/1.1/"
   xmlns:cc="http://creativecommons.org/ns#"
   xmlns:rdf="http://www.w3.org/1999/02/22-rdf-syntax-ns#"
   xmlns:svg="http://www.w3.org/2000/svg"
   xmlns="http://www.w3.org/2000/svg"
   xmlns:sodipodi="http://sodipodi.sourceforge.net/DTD/sodipodi-0.dtd"
   xmlns:inkscape="http://www.inkscape.org/namespaces/inkscape"
   version="1.1"
   id="Capa_1"
   x="0px"
   y="0px"
   width="24"
   height="24"
   viewBox="0 0 24 24"
   enable-background="new 0 0 52 52"
   xml:space="preserve"
   inkscape:version="0.48.4 r9939"
   sodipodi:docname="smiley.svg"><metadata
   id="metadata3013"><rdf:RDF><cc:Work
       rdf:about=""><dc:format>image/svg+xml</dc:format><dc:type
         rdf:resource="http://purl.org/dc/dcmitype/StillImage" /></cc:Work></rdf:RDF></metadata><defs
   id="defs3011" /><sodipodi:namedview
   pagecolor="#ffffff"
   bordercolor="#666666"
   borderopacity="1"
   objecttolerance="10"
   gridtolerance="10"
   guidetolerance="10"
   inkscape:pageopacity="0"
   inkscape:pageshadow="2"
   inkscape:window-width="788"
   inkscape:window-height="718"
   id="namedview3009"
   showgrid="false"
   inkscape:zoom="10.269231"
   inkscape:cx="26"
   inkscape:cy="26"
   inkscape:window-x="1802"
   inkscape:window-y="270"
   inkscape:window-maximized="0"
   inkscape:current-layer="Capa_1" />
<path
   d="M 12,0 C 5.3721154,0 0,5.372862 0,12 0,18.627138 5.3725962,24 12,24 18.627404,24 24,18.627138 24,12 24,5.372862 18.627885,0 12,0 z m 0,21.600096 C 6.6980769,21.600096 2.4,17.302191 2.4,12 2.4,6.697809 6.6980769,2.399904 12,2.399904 c 5.301923,0 9.6,4.297905 9.6,9.600096 0,5.302191 -4.297596,9.600096 -9.6,9.600096 z"
   id="path3001"
   inkscape:connector-curvature="0" />
<path
   d="m 10.816827,8.915027 c 0,-1.046592 -0.849519,-1.895597 -1.8966347,-1.895597 -1.0471154,0 -1.8961538,0.849486 -1.8961538,1.895597 0,1.047555 0.8490384,-1.076399 1.8961538,-1.076399 1.0471157,0 1.8966347,2.123954 1.8966347,1.076399 z"
   id="path3003"
   inkscape:connector-curvature="0" />
<path
   d="m 17.066827,8.915027 c 0,-1.046592 -0.849519,-1.895597 -1.896635,-1.895597 -1.047115,0 -1.896154,0.849486 -1.896154,1.895597 0,1.047555 0.849039,-1.076399 1.896154,-1.076399 1.047116,0 1.896635,2.123954 1.896635,1.076399 z"
   id="path3005"
   inkscape:connector-curvature="0" />
<path
   d="m 17.890385,13.926365 c 0,1.525901 -2.625,4.251272 -5.863943,4.251272 -3.238942,0 -5.8644228,-2.725371 -5.8644228,-4.251272 0,-1.5259 2.6254808,0.875927 5.8644228,0.875927 3.238943,0 5.863943,-2.401827 5.863943,-0.875927 z"
   id="path3007"
   inkscape:connector-curvature="0" />
</svg>