<?xml version="1.0" encoding="UTF-8" standalone="no"?>
<!-- Created with Inkscape (http://www.inkscape.org/) -->

<svg
   xmlns:dc="http://purl.org/dc/elements/1.1/"
   xmlns:cc="http://creativecommons.org/ns#"
   xmlns:rdf="http://www.w3.org/1999/02/22-rdf-syntax-ns#"
   xmlns:svg="http://www.w3.org/2000/svg"
   xmlns="http://www.w3.org/2000/svg"
   version="1.1"
   width="22"
   height="22"
   viewBox="0 0 22 22"
   id="Layer_1"
   xml:space="preserve"><metadata
     id="metadata3086"><rdf:RDF><cc:Work
         rdf:about=""><dc:format>image/svg+xml</dc:format><dc:type
           rdf:resource="http://purl.org/dc/dcmitype/StillImage" /><dc:title></dc:title></cc:Work></rdf:RDF></metadata><defs
     id="defs3084" /><g
     transform="translate(0,2)"
     id="layer2"
     style="display:inline"><path
       d="m 16.31356,8.8983049 a 9.4915257,9.3728809 0 1 1 -18.9830518,0 9.4915257,9.3728809 0 1 1 18.9830518,0 z"
       transform="matrix(1.0632779,0,0,1.0767372,3.7462817,-0.58113565)"
       id="path3088"
       style="fill:#ff0000;fill-opacity:1;stroke:#bebebe;stroke-width:1.69697511;stroke-linecap:butt;stroke-linejoin:miter;stroke-miterlimit:4;stroke-opacity:1;stroke-dasharray:none" /></g><polygon
     points="7,10 11,14 14,11 10,7 14,3 11,0 7,4 3,0 0,3 4,7 0,11 3,14 "
     transform="matrix(0.92857143,0,0,0.92857143,4.5,4.5)"
     id="polygon3050"
     style="fill:#ffffff" /><g
     transform="translate(0,8)"
     id="g3052" /><g
     transform="translate(0,8)"
     id="g3054" /><g
     transform="translate(0,8)"
     id="g3056" /><g
     transform="translate(0,8)"
     id="g3058" /><g
     transform="translate(0,8)"
     id="g3060" /><g
     transform="translate(0,8)"
     id="g3062" /><g
     transform="translate(0,8)"
     id="g3064" /><g
     transform="translate(0,8)"
     id="g3066" /><g
     transform="translate(0,8)"
     id="g3068" /><g
     transform="translate(0,8)"
     id="g3070" /><g
     transform="translate(0,8)"
     id="g3072" /><g
     transform="translate(0,8)"
     id="g3074" /><g
     transform="translate(0,8)"
     id="g3076" /><g
     transform="translate(0,8)"
     id="g3078" /><g
     transform="translate(0,8)"
     id="g3080" /><g
     transform="translate(0,2)"
     id="layer1"
     style="display:inline" /></svg>