<?xml version="1.0" encoding="UTF-8" standalone="no"?>
<!-- Generator: Adobe Illustrator 16.0.0, SVG Export Plug-In . SVG Version: 6.00 Build 0)  -->

<svg
   xmlns:dc="http://purl.org/dc/elements/1.1/"
   xmlns:cc="http://creativecommons.org/ns#"
   xmlns:rdf="http://www.w3.org/1999/02/22-rdf-syntax-ns#"
   xmlns:svg="http://www.w3.org/2000/svg"
   xmlns="http://www.w3.org/2000/svg"
   xmlns:sodipodi="http://sodipodi.sourceforge.net/DTD/sodipodi-0.dtd"
   xmlns:inkscape="http://www.inkscape.org/namespaces/inkscape"
   version="1.1"
   id="Layer_1"
   x="0px"
   y="0px"
   width="22"
   height="22"
   viewBox="0 0 22 22"
   xml:space="preserve"
   inkscape:version="0.48.4 r9939"
   sodipodi:docname="x-delete.svg"><metadata
     id="metadata3086"><rdf:RDF><cc:Work
         rdf:about=""><dc:format>image/svg+xml</dc:format><dc:type
           rdf:resource="http://purl.org/dc/dcmitype/StillImage" /></cc:Work></rdf:RDF></metadata><defs
     id="defs3084" /><sodipodi:namedview
     pagecolor="#ffffff"
     bordercolor="#666666"
     borderopacity="1"
     objecttolerance="10"
     gridtolerance="10"
     guidetolerance="10"
     inkscape:pageopacity="0"
     inkscape:pageshadow="2"
     inkscape:window-width="1375"
     inkscape:window-height="800"
     id="namedview3082"
     showgrid="false"
     inkscape:snap-global="true"
     inkscape:zoom="15.000765"
     inkscape:cx="15.258272"
     inkscape:cy="12.25639"
     inkscape:window-x="0"
     inkscape:window-y="22"
     inkscape:window-maximized="0"
     inkscape:current-layer="Layer_1" /><g
     inkscape:groupmode="layer"
     id="layer2"
     inkscape:label="circle"
     style="display:inline"
     transform="translate(0,2)"><path
       sodipodi:type="arc"
       style="fill:#ff0000;fill-opacity:1;stroke:#bebebe;stroke-width:1.69697511;stroke-linecap:butt;stroke-linejoin:miter;stroke-miterlimit:4;stroke-opacity:1;stroke-dasharray:none"
       id="path3088"
       sodipodi:cx="6.8220339"
       sodipodi:cy="8.8983049"
       sodipodi:rx="9.4915257"
       sodipodi:ry="9.3728809"
       d="m 16.31356,8.8983049 a 9.4915257,9.3728809 0 1 1 -18.9830518,0 9.4915257,9.3728809 0 1 1 18.9830518,0 z"
       transform="matrix(1.0632779,0,0,1.0767372,3.7462817,-0.58113565)" /></g><polygon
     points="3,14 7,10 11,14 14,11 10,7 14,3 11,0 7,4 3,0 0,3 4,7 0,11 "
     id="polygon3050"
     transform="matrix(0.92857143,0,0,0.92857143,4.5,4.5)"
     style="fill:#ffffff" /><g
     id="g3052"
     transform="translate(0,8)" /><g
     id="g3054"
     transform="translate(0,8)" /><g
     id="g3056"
     transform="translate(0,8)" /><g
     id="g3058"
     transform="translate(0,8)" /><g
     id="g3060"
     transform="translate(0,8)" /><g
     id="g3062"
     transform="translate(0,8)" /><g
     id="g3064"
     transform="translate(0,8)" /><g
     id="g3066"
     transform="translate(0,8)" /><g
     id="g3068"
     transform="translate(0,8)" /><g
     id="g3070"
     transform="translate(0,8)" /><g
     id="g3072"
     transform="translate(0,8)" /><g
     id="g3074"
     transform="translate(0,8)" /><g
     id="g3076"
     transform="translate(0,8)" /><g
     id="g3078"
     transform="translate(0,8)" /><g
     id="g3080"
     transform="translate(0,8)" /><g
     inkscape:groupmode="layer"
     id="layer1"
     inkscape:label="cross"
     style="display:inline"
     transform="translate(0,2)" /></svg>